<svg width="16" height="16" viewBox="0 0 16 16" fill="none" xmlns="http://www.w3.org/2000/svg">
<path fill-rule="evenodd" clip-rule="evenodd" d="M3.55544 1.34824C4.87104 0.469192 6.41775 0 8 0C10.121 0.00250216 12.1543 0.846161 13.6541 2.34591C15.1538 3.84566 15.9975 5.87904 16 8C16 9.58225 15.5308 11.129 14.6518 12.4446C13.7727 13.7602 12.5233 14.7855 11.0615 15.391C9.59966 15.9965 7.99113 16.155 6.43928 15.8463C4.88743 15.5376 3.46197 14.7757 2.34315 13.6569C1.22433 12.538 0.462403 11.1126 0.153721 9.56072C-0.15496 8.00888 0.0034663 6.40034 0.608967 4.93853C1.21447 3.47672 2.23985 2.22729 3.55544 1.34824ZM4.36354 13.4423C5.43994 14.1616 6.70544 14.5455 8 14.5455C9.73532 14.5433 11.399 13.8531 12.626 12.626C13.8531 11.3989 14.5433 9.73531 14.5455 8C14.5455 6.70543 14.1616 5.43994 13.4424 4.36354C12.7231 3.28715 11.7009 2.4482 10.5048 1.95279C9.30882 1.45738 7.99274 1.32776 6.72305 1.58031C5.45336 1.83287 4.28707 2.45627 3.37167 3.37167C2.45627 4.28706 1.83288 5.45335 1.58032 6.72305C1.32776 7.99274 1.45738 9.30881 1.95279 10.5048C2.4482 11.7009 3.28715 12.7231 4.36354 13.4423ZM8.72725 3.63743V7.69998L10.696 9.6687C10.8285 9.80587 10.9018 9.98958 10.9001 10.1803C10.8984 10.371 10.822 10.5534 10.6871 10.6882C10.5523 10.823 10.3699 10.8995 10.1792 10.9012C9.98849 10.9028 9.80478 10.8295 9.66761 10.6971L7.4858 8.51525C7.3494 8.37889 7.27275 8.19393 7.27271 8.00107V3.63743C7.27271 3.44454 7.34933 3.25956 7.48572 3.12317C7.62211 2.98678 7.80709 2.91016 7.99998 2.91016C8.19286 2.91016 8.37785 2.98678 8.51424 3.12317C8.65063 3.25956 8.72725 3.44454 8.72725 3.63743Z" fill="black"/>
</svg>
