<svg width="50" height="50" viewBox="0 0 50 50" fill="none" xmlns="http://www.w3.org/2000/svg">
<circle opacity="0.2" cx="25" cy="25" r="25" fill="#C4C4C4"/>
<path d="M31.3103 24.2874C30.9073 24.1602 29.737 23.8108 29.6873 23.7959C29.2419 23.6629 28.7688 23.8965 28.6094 24.3281L26.4024 30.3063L25.8832 26.7568L26.877 25.0576C27.0337 24.7897 27.0337 24.4596 26.877 24.1918C26.7203 23.9238 26.4308 23.7588 26.1174 23.7588H23.8829C23.5694 23.7588 23.28 23.9239 23.1233 24.1918C22.9666 24.4597 22.9666 24.7898 23.1233 25.0576L24.1173 26.7573L23.6066 30.3301L21.3908 24.3281C21.2314 23.8965 20.7582 23.6627 20.3129 23.7959C20.2632 23.8107 19.0929 24.1602 18.6899 24.2874C16.4829 24.9848 15 27.0116 15 29.3309V38.1342C15 38.6123 15.3927 39 15.877 39H34.123C34.6073 39 35 38.6123 35 38.1342V29.3309C35.0001 27.0116 33.5172 24.9848 31.3103 24.2874ZM16.7542 37.2683V29.3309C16.7542 27.7676 17.747 26.4036 19.2246 25.9367C19.3942 25.8831 19.7163 25.7852 20.0271 25.6915L24.176 36.9298C24.2248 37.0619 24.3039 37.177 24.4039 37.2684H16.7542V37.2683ZM33.246 37.2682H25.5961C25.6962 37.1768 25.7753 37.0617 25.8241 36.9296L29.9731 25.6914C30.2838 25.7851 30.6061 25.883 30.7756 25.9366C32.2532 26.4035 33.246 27.7674 33.246 29.3308V37.2682Z" fill="#363636"/>
<path d="M25 21.738C27.9988 21.738 30.4386 19.3294 30.4386 16.369C30.4386 13.4085 27.9989 11 25 11C22.0011 11 19.5615 13.4085 19.5615 16.369C19.5615 19.3294 22.0012 21.738 25 21.738ZM25 12.7318C27.0315 12.7318 28.6845 14.3634 28.6845 16.369C28.6845 18.3745 27.0316 20.0064 25 20.0064C22.9684 20.0064 21.3157 18.3746 21.3157 16.369C21.3157 14.3633 22.9685 12.7318 25 12.7318Z" fill="#363636"/>
</svg>
